<svg width="16" height="12" viewBox="0 0 16 12" fill="none" xmlns="http://www.w3.org/2000/svg">
<path d="M4.00016 5.33317V7.99984M12.0002 3.99984V6.6665M11.3335 0.666504C12.966 0.666504 13.8489 0.916344 14.2882 1.11013C14.3467 1.13594 14.376 1.14884 14.4604 1.22942C14.511 1.27772 14.6034 1.41943 14.6272 1.48523C14.6668 1.595 14.6668 1.655 14.6668 1.775V8.9406C14.6668 9.54644 14.6668 9.84937 14.576 10.0051C14.4836 10.1635 14.3944 10.2371 14.2215 10.298C14.0514 10.3578 13.7081 10.2918 13.0216 10.1599C12.5411 10.0676 11.9712 9.99984 11.3335 9.99984C9.3335 9.99984 7.3335 11.3332 4.66683 11.3332C3.03436 11.3332 2.15141 11.0833 1.71208 10.8895C1.65358 10.8637 1.62433 10.8508 1.5399 10.7703C1.48929 10.722 1.39691 10.5802 1.37314 10.5144C1.3335 10.4047 1.3335 10.3447 1.3335 10.2247L1.3335 3.05907C1.3335 2.45323 1.3335 2.15031 1.42435 1.9946C1.51676 1.83621 1.60589 1.76258 1.77887 1.70171C1.94892 1.64187 2.29219 1.70783 2.97872 1.83974C3.45924 1.93206 4.02915 1.99984 4.66683 1.99984C6.66683 1.99984 8.66683 0.666504 11.3335 0.666504ZM9.66683 5.99984C9.66683 6.92031 8.92064 7.6665 8.00016 7.6665C7.07969 7.6665 6.3335 6.92031 6.3335 5.99984C6.3335 5.07936 7.07969 4.33317 8.00016 4.33317C8.92064 4.33317 9.66683 5.07936 9.66683 5.99984Z" stroke="#2087E7" stroke-linecap="round" stroke-linejoin="round"/>
</svg>
