<svg width="15" height="13" viewBox="0 0 15 13" fill="none" xmlns="http://www.w3.org/2000/svg">
<path d="M12.1668 12.0002V8.00016M10.1668 10.0002H14.1668M14.1668 4.66683H0.833496M14.1668 6.00016V3.46683C14.1668 2.72009 14.1668 2.34673 14.0215 2.06151C13.8937 1.81063 13.6897 1.60665 13.4388 1.47882C13.1536 1.3335 12.7802 1.3335 12.0335 1.3335H2.96683C2.22009 1.3335 1.84672 1.3335 1.56151 1.47882C1.31063 1.60665 1.10665 1.81063 0.978821 2.06151C0.833496 2.34672 0.833496 2.72009 0.833496 3.46683V8.5335C0.833496 9.28023 0.833496 9.6536 0.978821 9.93882C1.10665 10.1897 1.31063 10.3937 1.56151 10.5215C1.84672 10.6668 2.22009 10.6668 2.96683 10.6668H7.50016" stroke="white" stroke-linecap="round" stroke-linejoin="round"/>
</svg>
