<svg width="15" height="12" viewBox="0 0 15 12" fill="none" xmlns="http://www.w3.org/2000/svg">
<path d="M14.1668 4.66683H0.833496M6.8335 7.3335H3.50016M0.833496 3.46683L0.833496 8.53349C0.833496 9.28023 0.833496 9.6536 0.978821 9.93881C1.10665 10.1897 1.31063 10.3937 1.56151 10.5215C1.84672 10.6668 2.22009 10.6668 2.96683 10.6668L12.0335 10.6668C12.7802 10.6668 13.1536 10.6668 13.4388 10.5215C13.6897 10.3937 13.8937 10.1897 14.0215 9.93882C14.1668 9.6536 14.1668 9.28023 14.1668 8.5335V3.46683C14.1668 2.72009 14.1668 2.34673 14.0215 2.06151C13.8937 1.81063 13.6897 1.60665 13.4388 1.47882C13.1536 1.3335 12.7802 1.3335 12.0335 1.3335L2.96683 1.3335C2.22009 1.3335 1.84672 1.3335 1.56151 1.47882C1.31063 1.60665 1.10665 1.81063 0.978821 2.06151C0.833496 2.34672 0.833496 2.72009 0.833496 3.46683Z" stroke="white" stroke-linecap="round" stroke-linejoin="round"/>
</svg>
