<svg width="16" height="13" viewBox="0 0 16 13" fill="none" xmlns="http://www.w3.org/2000/svg">
<path d="M14.6668 4.66683H1.3335M14.6668 5.3335V3.46683C14.6668 2.72009 14.6668 2.34673 14.5215 2.06151C14.3937 1.81063 14.1897 1.60665 13.9388 1.47882C13.6536 1.3335 13.2802 1.3335 12.5335 1.3335H3.46683C2.72009 1.3335 2.34672 1.3335 2.06151 1.47882C1.81063 1.60665 1.60665 1.81063 1.47882 2.06151C1.3335 2.34672 1.3335 2.72009 1.3335 3.46683V8.5335C1.3335 9.28023 1.3335 9.6536 1.47882 9.93882C1.60665 10.1897 1.81063 10.3937 2.06151 10.5215C2.34672 10.6668 2.72009 10.6668 3.46683 10.6668H7.66683M12.0002 12.0002C12.0002 12.0002 14.0002 11.0469 14.0002 9.61698V7.94875L12.5418 7.42763C12.1914 7.30212 11.8082 7.30212 11.4578 7.42763L10.0002 7.94875V9.61698C10.0002 11.0469 12.0002 12.0002 12.0002 12.0002Z" stroke="white" stroke-linecap="round" stroke-linejoin="round"/>
</svg>
