<svg width="16" height="13" viewBox="0 0 16 13" fill="none" xmlns="http://www.w3.org/2000/svg">
<path d="M1.3335 4.66683H14.6668V3.46683C14.6668 2.72009 14.6668 2.34673 14.5215 2.06151C14.3937 1.81063 14.1897 1.60665 13.9388 1.47882C13.6536 1.3335 13.2802 1.3335 12.5335 1.3335H3.46683C2.72009 1.3335 2.34672 1.3335 2.06151 1.47882C1.81063 1.60665 1.60665 1.81063 1.47882 2.06151C1.3335 2.34672 1.3335 2.72009 1.3335 3.46683V8.5335C1.3335 9.28023 1.3335 9.6536 1.47882 9.93882C1.60665 10.1897 1.81063 10.3937 2.06151 10.5215C2.34672 10.6668 2.72009 10.6668 3.46683 10.6668H7.3335M9.66683 12.0002L11.0168 11.7302C11.1345 11.7066 11.1934 11.6949 11.2483 11.6733C11.297 11.6542 11.3433 11.6294 11.3862 11.5995C11.4345 11.5658 11.477 11.5233 11.5619 11.4385L14.3335 8.66683C14.7017 8.29864 14.7017 7.70169 14.3335 7.3335C13.9653 6.96531 13.3684 6.96531 13.0002 7.3335L10.2285 10.1051C10.1436 10.19 10.1012 10.2325 10.0675 10.2808C10.0375 10.3237 10.0128 10.37 9.99367 10.4187C9.97214 10.4736 9.96037 10.5325 9.93683 10.6502L9.66683 12.0002Z" stroke="#8020E7" stroke-linecap="round" stroke-linejoin="round"/>
</svg>
