<svg width="11" height="16" viewBox="0 0 11 16" fill="none" xmlns="http://www.w3.org/2000/svg">
<path d="M3.50016 12.3335H7.50016M1.90016 1.3335H9.10016C9.47353 1.3335 9.66022 1.3335 9.80282 1.40616C9.92826 1.47007 10.0303 1.57206 10.0942 1.6975C10.1668 1.84011 10.1668 2.02679 10.1668 2.40016V3.78317C10.1668 4.10929 10.1668 4.27236 10.13 4.42581C10.0973 4.56185 10.0435 4.69191 9.97035 4.81121C9.88789 4.94576 9.77259 5.06107 9.54199 5.29167L7.58774 7.24592C7.32373 7.50993 7.19173 7.64193 7.14227 7.79415C7.09876 7.92805 7.09876 8.07228 7.14227 8.20617C7.19173 8.35839 7.32373 8.4904 7.58774 8.75441L9.54199 10.7087C9.77259 10.9393 9.88789 11.0546 9.97035 11.1891C10.0435 11.3084 10.0973 11.4385 10.13 11.5745C10.1668 11.728 10.1668 11.891 10.1668 12.2172V13.6002C10.1668 13.9735 10.1668 14.1602 10.0942 14.3028C10.0303 14.4283 9.92826 14.5303 9.80282 14.5942C9.66022 14.6668 9.47353 14.6668 9.10016 14.6668H1.90016C1.52679 14.6668 1.34011 14.6668 1.1975 14.5942C1.07206 14.5303 0.970074 14.4283 0.906158 14.3028C0.833496 14.1602 0.833496 13.9735 0.833496 13.6002V12.2172C0.833496 11.891 0.833496 11.728 0.870336 11.5745C0.902999 11.4385 0.956871 11.3084 1.02998 11.1891C1.11243 11.0546 1.22773 10.9393 1.45833 10.7087L3.41258 8.75441C3.67659 8.4904 3.8086 8.35839 3.85806 8.20617C3.90156 8.07228 3.90156 7.92805 3.85806 7.79415C3.8086 7.64193 3.67659 7.50992 3.41258 7.24592L1.45833 5.29167C1.22773 5.06107 1.11243 4.94576 1.02998 4.81121C0.956871 4.69191 0.902999 4.56185 0.870336 4.42581C0.833496 4.27236 0.833496 4.10929 0.833496 3.78317V2.40016C0.833496 2.02679 0.833496 1.84011 0.906158 1.6975C0.970074 1.57206 1.07206 1.47007 1.1975 1.40616C1.34011 1.3335 1.52679 1.3335 1.90016 1.3335Z" stroke="#E78020" stroke-linecap="round" stroke-linejoin="round"/>
</svg>
